<svg width="1440" height="1024" viewBox="0 0 1440 1024" fill="none" xmlns="http://www.w3.org/2000/svg">
<g clip-path="url(#clip0_70_2)">
<rect width="1440" height="1024" fill="white"/>
<rect x="-15" width="1491" height="1062" fill="#B7B491"/>
<path d="M479.786 285.024V259L490.76 269.677L555.958 259H608.89L642.457 285.024L686.998 320.39V309.046H712.173H794.154L811.583 365.765L868.389 446.506L906.474 468.527L927.131 523.244L982 511.9V523.244L927.131 652.03L893.564 699.407V771.473L826.43 830.861V884.911L811.583 908.933L771.561 963.651L728.957 981L676.024 963.651L642.457 908.933L621.155 850.213V784.819V750.12V714.754L597.916 678.054L583.715 652.03V581.965L539.174 557.943H479.786L424.917 581.965L384.895 557.943L364.239 523.244L341 468.527L364.239 433.828V387.786L384.895 344.412L424.917 320.39L452.675 285.024H479.786Z" fill="#967A51"/>
<path d="M468.039 180.501L521.749 187.174L535.985 153.142L512.042 138.462L547.633 123.781H562.517L585.166 106.431L609.756 95.7545V87.7469L627.228 59.0531V87.7469L653.112 95.7545L685.468 87.7469V77.0701L705.528 59.0531L730.765 40.3687H705.528L696.469 25.6882L715.882 3H248.021L241.55 21.6844L235.079 40.3687V77.0701L200.135 59.0531L241.55 21.6844L248.021 3H715.882H768.945H1347.46H1443.88L1434.82 197.851L1462 271.921L1443.88 315.296V349.328L1434.82 372.683L1421.88 325.305L1414.11 366.01L1462 446.754L1443.88 511.482L1398.58 460.767V485.457L1443.88 570.204V607.573L1462 635.599L1443.88 707L1414.11 656.953L1369.46 546.848L1421.88 583.55L1414.11 546.848L1386.94 511.482L1361.7 411.387L1347.46 424.733L1303.46 349.328L1284.04 359.337L1242.63 446.754L1238.1 511.482L1221.92 529.499L1152.03 397.373H1141.03L1097.68 353.999L1072.44 359.337L982.491 343.322L934.605 315.296L968.902 380.024L1009.67 349.328L1049.14 397.373L976.02 470.109L910.015 494.799L899.661 453.427L829.773 343.322L818.125 353.999L789.005 315.296H818.125V263.246L743.708 257.241L730.765 224.543L723.647 235.887L730.765 252.57L723.647 263.246L696.469 247.899L685.468 211.197L640.817 180.501L635.64 187.174L680.291 229.882H669.29V243.227L653.112 263.246L627.228 247.899L658.289 243.227L624.639 203.19L609.756 187.174L573.518 197.851L562.517 203.19L512.042 252.57H474.51L462.862 229.882L468.039 203.19V180.501Z" fill="#967A51"/>
<path d="M925.108 793.429L965.195 756.727L977.48 777.413L947.092 862.161L910.884 891.523V852.152L925.108 793.429Z" fill="#967A51"/>
<path d="M1404.21 1041L1454 942.906V1032.99L1404.21 1041Z" fill="#967A51"/>
<path d="M39.3116 566.544L-15 545.858V1032.99H124.658L114.313 930.227L160.866 891.523V785.421L176.384 709.348L160.866 675.315L39.3116 625.267V566.544Z" fill="#967A51"/>
<path d="M19.268 120.115L-15 140.135L-7.88776 6.67308L263.67 0L245.566 26.6923H208.066L185.436 11.3442V26.6923L176.384 50.0481V65.3961L133.71 86.0827L142.762 65.3961H113.02L87.1576 86.0827H61.2949L19.268 120.115Z" fill="#967A51"/>
<path d="M606.997 36.0346L658.076 6.67308L689.758 11.3442L678.12 36.0346V65.3961L647.731 86.0827L638.679 50.0481H606.997V36.0346Z" fill="#967A51"/>
<path d="M555.919 100.096V50.0481L534.582 65.3961L543.634 86.0827L521.004 120.115H543.634L564.971 109.438L555.919 100.096Z" fill="#967A51"/>
<path d="M491.262 109.438L521.004 86.0827H502.9L491.262 109.438Z" fill="#967A51"/>
<path d="M412 259C412 265.827 407.175 290.176 400.6 302.946C395.425 313 382.192 315.003 373.351 320.793C370.907 322.826 368.193 325.614 366.041 327.981C363.889 330.347 362.381 332.206 359 336" stroke="#B7B491" stroke-width="2" stroke-linecap="round"/>
<g filter="url(#filter0_d_70_2)">
<path d="M442.881 251L398.157 278.459C371.756 294.669 348.895 316.036 330.94 341.282L326.083 348.112C309.714 371.129 298.604 397.461 293.537 425.247L292.074 433.271C288.721 451.657 288.843 470.508 292.433 488.849L294.661 500.235C298.942 522.106 309.667 542.197 325.458 557.924L353.03 585.387C356.308 588.652 360.747 590.485 365.373 590.485C379.634 590.485 387.901 606.635 379.561 618.204L341.468 671.04C332.027 684.135 329.368 700.935 334.303 716.305L358.149 790.574L380.318 837.593C402.92 885.531 439.915 925.223 486.146 951.138L489.211 952.856C503.984 961.138 519.65 967.716 535.907 972.464L595.303 989.811C613.279 995.061 632.595 993.078 649.128 984.284L656.272 980.485C673.977 971.068 695.312 971.575 712.55 981.822C729.49 991.892 750.413 992.566 767.967 983.607L793.038 970.811C800.103 967.205 806.169 961.911 810.695 955.397L827.325 931.47C829.858 927.825 829.648 922.937 826.81 919.523C823.125 915.089 824.006 908.455 828.72 905.136L847.522 891.903C855.796 886.08 860.719 876.595 860.719 866.477V831.259V819.66C860.719 803.596 873.741 790.574 889.805 790.574C897.674 790.574 905.207 787.386 910.685 781.737L916.348 775.897C928.699 763.161 933.076 744.68 927.747 727.758L920.855 705.867C920.438 704.543 920.226 703.162 920.226 701.774C920.226 695.866 924.033 690.63 929.654 688.81L1004.3 664.631C1015.46 661.018 1026.04 655.808 1035.7 649.164L1060.84 631.88C1078.3 619.879 1094.44 606.064 1108.98 590.664L1135.61 562.472L1176.36 519.787L1199 498.444" stroke="#FF0000" stroke-width="7" stroke-linecap="round"/>
</g>
<rect x="-15" width="1491" height="1062" fill="#B7B491"/>
<path d="M479.786 285.024V259L490.76 269.677L555.958 259H608.89L642.457 285.024L686.998 320.39V309.046H712.173H794.154L811.583 365.765L868.389 446.506L906.474 468.527L927.131 523.244L982 511.9V523.244L927.131 652.03L893.564 699.407V771.473L826.43 830.861V884.911L811.583 908.933L771.561 963.651L728.957 981L676.024 963.651L642.457 908.933L621.155 850.213V784.819V750.12V714.754L597.916 678.054L583.715 652.03V581.965L539.174 557.943H479.786L424.917 581.965L384.895 557.943L364.239 523.244L341 468.527L364.239 433.828V387.786L384.895 344.412L424.917 320.39L452.675 285.024H479.786Z" fill="#967A51"/>
<path d="M468.039 180.501L521.749 187.174L535.985 153.142L512.042 138.462L547.633 123.781H562.517L585.166 106.431L609.756 95.7545V87.7469L627.228 59.0531V87.7469L653.112 95.7545L685.468 87.7469V77.0701L705.528 59.0531L730.765 40.3687H705.528L696.469 25.6882L715.882 3H248.021L241.55 21.6844L235.079 40.3687V77.0701L200.135 59.0531L241.55 21.6844L248.021 3H715.882H768.945H1347.46H1443.88L1434.82 197.851L1462 271.921L1443.88 315.296V349.328L1434.82 372.683L1421.88 325.305L1414.11 366.01L1462 446.754L1443.88 511.482L1398.58 460.767V485.457L1443.88 570.204V607.573L1462 635.599L1443.88 707L1414.11 656.953L1369.46 546.848L1421.88 583.55L1414.11 546.848L1386.94 511.482L1361.7 411.387L1347.46 424.733L1303.46 349.328L1284.04 359.337L1242.63 446.754L1238.1 511.482L1221.92 529.499L1152.03 397.373H1141.03L1097.68 353.999L1072.44 359.337L982.491 343.322L934.605 315.296L968.902 380.024L1009.67 349.328L1049.14 397.373L976.02 470.109L910.015 494.799L899.661 453.427L829.773 343.322L818.125 353.999L789.005 315.296H818.125V263.246L743.708 257.241L730.765 224.543L723.647 235.887L730.765 252.57L723.647 263.246L696.469 247.899L685.468 211.197L640.817 180.501L635.64 187.174L680.291 229.882H669.29V243.227L653.112 263.246L627.228 247.899L658.289 243.227L624.639 203.19L609.756 187.174L573.518 197.851L562.517 203.19L512.042 252.57H474.51L462.862 229.882L468.039 203.19V180.501Z" fill="#967A51"/>
<path d="M925.108 793.429L965.195 756.727L977.48 777.413L947.092 862.161L910.884 891.523V852.152L925.108 793.429Z" fill="#967A51"/>
<path d="M1404.21 1041L1454 942.906V1032.99L1404.21 1041Z" fill="#967A51"/>
<path d="M39.3116 566.544L-15 545.858V1032.99H124.658L114.313 930.227L160.866 891.523V785.421L176.384 709.348L160.866 675.315L39.3116 625.267V566.544Z" fill="#967A51"/>
<path d="M19.268 120.115L-15 140.135L-1 -38L263.67 0L245.566 26.6923H208.066L185.436 11.3442V26.6923L176.384 50.0481V65.3961L133.71 86.0827L142.762 65.3961H113.02L87.1576 86.0827H61.2949L19.268 120.115Z" fill="#967A51"/>
<path d="M606.997 36.0346L658.076 6.67308L689.758 11.3442L678.12 36.0346V65.3961L647.731 86.0827L638.679 50.0481H606.997V36.0346Z" fill="#967A51"/>
<path d="M555.919 100.096V50.0481L534.582 65.3961L543.634 86.0827L521.004 120.115H543.634L564.971 109.438L555.919 100.096Z" fill="#967A51"/>
<path d="M491.262 109.438L521.004 86.0827H502.9L491.262 109.438Z" fill="#967A51"/>
<path d="M412 259C412 265.827 407.175 290.176 400.6 302.946C395.425 313 382.192 315.003 373.351 320.793C370.907 322.826 368.193 325.614 366.041 327.981C363.889 330.347 362.381 332.206 359 336" stroke="#B7B491" stroke-width="2" stroke-linecap="round"/>
<path d="M453.5 237L421 259" stroke="white" stroke-width="5" stroke-linecap="round"/>
<path d="M410.142 268L385.293 298.377" stroke="white" stroke-width="5" stroke-linecap="round"/>
<path d="M373.142 315L348.293 345.377" stroke="white" stroke-width="5" stroke-linecap="round"/>
<path d="M341.187 355L323.952 390.259" stroke="white" stroke-width="5" stroke-linecap="round"/>
<path d="M315.187 408L297.952 443.259" stroke="white" stroke-width="5" stroke-linecap="round"/>
<path d="M294.377 461L295.591 500.227" stroke="white" stroke-width="5" stroke-linecap="round"/>
<path d="M297.908 521L316.912 555.338" stroke="white" stroke-width="5" stroke-linecap="round"/>
<path d="M333 563.634L365.99 584.892" stroke="white" stroke-width="5" stroke-linecap="round"/>
<path d="M381.469 594L349.953 617.387" stroke="white" stroke-width="5" stroke-linecap="round"/>
<path d="M341.14 625L329.942 662.615" stroke="white" stroke-width="5" stroke-linecap="round"/>
<path d="M327.14 680L315.942 717.615" stroke="white" stroke-width="5" stroke-linecap="round"/>
<path d="M314.764 749L325.984 786.608" stroke="white" stroke-width="5" stroke-linecap="round"/>
<path d="M340 805.443L364.084 836.43" stroke="white" stroke-width="5" stroke-linecap="round"/>
<path d="M370 853.146L400.203 878.206" stroke="white" stroke-width="5" stroke-linecap="round"/>
<path d="M421 897.778L458.505 909.337" stroke="white" stroke-width="5" stroke-linecap="round"/>
<path d="M471.669 915.939L507.836 931.177" stroke="white" stroke-width="5" stroke-linecap="round"/>
<path d="M529 937.168L567.804 943.04" stroke="white" stroke-width="5" stroke-linecap="round"/>
<path d="M589 943.168L627.804 949.04" stroke="white" stroke-width="5" stroke-linecap="round"/>
<path d="M648 959.329L673.316 989.317" stroke="white" stroke-width="5" stroke-linecap="round"/>
<path d="M692 997.887L730.19 1006.93" stroke="white" stroke-width="5" stroke-linecap="round"/>
<path d="M749 1001.97L782.516 981.556" stroke="white" stroke-width="5" stroke-linecap="round"/>
<path d="M793.604 963.941L811.475 929" stroke="white" stroke-width="5" stroke-linecap="round"/>
<path d="M816.723 915.404L844.357 887.537" stroke="white" stroke-width="5" stroke-linecap="round"/>
<path d="M849.391 869.457L857.223 831" stroke="white" stroke-width="5" stroke-linecap="round"/>
<path d="M857.751 816.517L888.397 792" stroke="white" stroke-width="5" stroke-linecap="round"/>
<path d="M894.751 780.517L925.397 756" stroke="white" stroke-width="5" stroke-linecap="round"/>
<path d="M923.88 737.791L917.92 699" stroke="white" stroke-width="5" stroke-linecap="round"/>
<path d="M948.662 673.646L911.138 685.144" stroke="white" stroke-width="5" stroke-linecap="round"/>
<path d="M997.452 642L966.189 665.725" stroke="white" stroke-width="5" stroke-linecap="round"/>
<path d="M1046.37 611.074L1011.28 628.651" stroke="white" stroke-width="5" stroke-linecap="round"/>
<path d="M1094.09 585.236L1059 602.812" stroke="white" stroke-width="5" stroke-linecap="round"/>
<path d="M1138.3 550.804L1104.79 571.245" stroke="white" stroke-width="5" stroke-linecap="round"/>
<path d="M1185.5 520.534L1152 540.975" stroke="white" stroke-width="5" stroke-linecap="round"/>
</g>
<defs>
<filter id="filter0_d_70_2" x="282.146" y="247.5" width="924.354" height="756.69" filterUnits="userSpaceOnUse" color-interpolation-filters="sRGB">
<feFlood flood-opacity="0" result="BackgroundImageFix"/>
<feColorMatrix in="SourceAlpha" type="matrix" values="0 0 0 0 0 0 0 0 0 0 0 0 0 0 0 0 0 0 127 0" result="hardAlpha"/>
<feOffset dy="4"/>
<feGaussianBlur stdDeviation="2"/>
<feComposite in2="hardAlpha" operator="out"/>
<feColorMatrix type="matrix" values="0 0 0 0 0 0 0 0 0 0 0 0 0 0 0 0 0 0 0.25 0"/>
<feBlend mode="normal" in2="BackgroundImageFix" result="effect1_dropShadow_70_2"/>
<feBlend mode="normal" in="SourceGraphic" in2="effect1_dropShadow_70_2" result="shape"/>
</filter>
<clipPath id="clip0_70_2">
<rect width="1440" height="1024" fill="white"/>
</clipPath>
</defs>
</svg>
